<?xml version="1.0" encoding="UTF-8" standalone="no"?>
<!DOCTYPE svg PUBLIC "-//W3C//DTD SVG 1.1//EN"
 "http://www.w3.org/Graphics/SVG/1.1/DTD/svg11.dtd">
<!-- Generated by graphviz version 2.36.0 (20140111.2315)
 -->
<!-- Title: %3 Pages: 1 -->
<svg width="143pt" height="308pt"
 viewBox="0.00 0.00 143.00 308.00" xmlns="http://www.w3.org/2000/svg" xmlns:xlink="http://www.w3.org/1999/xlink">
<g id="graph0" class="graph" transform="scale(1 1) rotate(0) translate(4 304)">
<title>%3</title>
<polygon fill="white" stroke="none" points="-4,4 -4,-304 139,-304 139,4 -4,4"/>
<!-- a -->
<g id="node1" class="node"><title>a</title>
<ellipse fill="none" stroke="black" cx="27" cy="-194" rx="27" ry="18"/>
<text text-anchor="middle" x="27" y="-190.3" font-family="Times,serif" font-size="14.00">a</text>
</g>
<!-- b -->
<g id="node2" class="node"><title>b</title>
<ellipse fill="none" stroke="black" cx="80" cy="-106" rx="27" ry="18"/>
<text text-anchor="middle" x="80" y="-102.3" font-family="Times,serif" font-size="14.00">b</text>
</g>
<!-- a&#45;&#45;b -->
<g id="edge1" class="edge"><title>a&#45;&#45;b</title>
<path fill="none" stroke="black" d="M36.9689,-176.824C46.5044,-161.351 60.7946,-138.163 70.2549,-122.813"/>
<text text-anchor="middle" x="65.5" y="-146.3" font-family="Times,serif" font-size="14.00"> 2 </text>
</g>
<!-- c -->
<g id="node3" class="node"><title>c</title>
<ellipse fill="none" stroke="black" cx="80" cy="-18" rx="27" ry="18"/>
<text text-anchor="middle" x="80" y="-14.3" font-family="Times,serif" font-size="14.00">c</text>
</g>
<!-- b&#45;&#45;c -->
<g id="edge2" class="edge"><title>b&#45;&#45;c</title>
<path fill="none" stroke="black" d="M80,-87.5966C80,-72.5778 80,-51.009 80,-36.084"/>
<text text-anchor="middle" x="87.5" y="-58.3" font-family="Times,serif" font-size="14.00"> 2 </text>
</g>
<!-- c&#45;&#45;a -->
<g id="edge3" class="edge"><title>c&#45;&#45;a</title>
<path fill="none" stroke="black" d="M65.1969,-33.2969C52.9021,-46.2574 36.2894,-66.5632 29,-88 18.904,-117.69 21.4717,-154.883 24.2437,-176.094"/>
<text text-anchor="middle" x="36.5" y="-102.3" font-family="Times,serif" font-size="14.00"> 2 </text>
</g>
<!-- d -->
<g id="node4" class="node"><title>d</title>
<ellipse fill="none" stroke="black" cx="90" cy="-282" rx="27" ry="18"/>
<text text-anchor="middle" x="90" y="-278.3" font-family="Times,serif" font-size="14.00">d</text>
</g>
<!-- d&#45;&#45;a -->
<g id="edge4" class="edge"><title>d&#45;&#45;a</title>
<path fill="none" stroke="black" d="M76.9433,-265.943C71.8256,-259.863 65.9951,-252.709 61,-246 52.4848,-234.562 43.5684,-221.125 37.0038,-210.915"/>
<text text-anchor="middle" x="68.5" y="-234.3" font-family="Times,serif" font-size="14.00"> 2 </text>
</g>
<!-- d&#45;&#45;b -->
<g id="edge5" class="edge"><title>d&#45;&#45;b</title>
<path fill="none" stroke="black" d="M89.023,-263.999C87.1112,-230.735 82.896,-157.39 80.981,-124.07"/>
<text text-anchor="middle" x="92.5" y="-190.3" font-family="Times,serif" font-size="14.00"> 2 </text>
</g>
<!-- d&#45;&#45;c -->
<g id="edge6" class="edge"><title>d&#45;&#45;c</title>
<path fill="none" stroke="black" d="M96.3053,-264.277C108.133,-230.56 131.147,-152.165 116,-88 111.344,-68.2748 99.7842,-47.9758 91.01,-34.5475"/>
<text text-anchor="middle" x="127.5" y="-146.3" font-family="Times,serif" font-size="14.00"> 2 </text>
</g>
</g>
</svg>
