<?xml version="1.0" encoding="UTF-8" standalone="no"?>
<!DOCTYPE svg PUBLIC "-//W3C//DTD SVG 1.1//EN"
 "http://www.w3.org/Graphics/SVG/1.1/DTD/svg11.dtd">
<!-- Generated by graphviz version 2.36.0 (20140111.2315)
 -->
<!-- Title: %3 Pages: 1 -->
<svg width="638pt" height="332pt"
 viewBox="0.00 0.00 638.00 332.00" xmlns="http://www.w3.org/2000/svg" xmlns:xlink="http://www.w3.org/1999/xlink">
<g id="graph0" class="graph" transform="scale(1 1) rotate(0) translate(4 328)">
<title>%3</title>
<polygon fill="white" stroke="none" points="-4,4 -4,-328 634,-328 634,4 -4,4"/>
<!-- ell1 -->
<g id="node1" class="node"><title>ell1</title>
<ellipse fill="none" stroke="black" cx="315" cy="-162" rx="27" ry="18"/>
<text text-anchor="middle" x="315" y="-158.3" font-family="Times,serif" font-size="14.00">…</text>
</g>
<!-- ell2 -->
<g id="node2" class="node"><title>ell2</title>
<ellipse fill="none" stroke="black" cx="387" cy="-162" rx="27" ry="18"/>
<text text-anchor="middle" x="387" y="-158.3" font-family="Times,serif" font-size="14.00">…</text>
</g>
<!-- ell3 -->
<g id="node3" class="node"><title>ell3</title>
<ellipse fill="none" stroke="black" cx="171" cy="-90" rx="27" ry="18"/>
<text text-anchor="middle" x="171" y="-86.3" font-family="Times,serif" font-size="14.00">…</text>
</g>
<!-- ell4 -->
<g id="node4" class="node"><title>ell4</title>
<ellipse fill="none" stroke="black" cx="243" cy="-90" rx="27" ry="18"/>
<text text-anchor="middle" x="243" y="-86.3" font-family="Times,serif" font-size="14.00">…</text>
</g>
<!-- ø -->
<g id="node5" class="node"><title>ø</title>
<ellipse fill="none" stroke="black" cx="351" cy="-306" rx="27" ry="18"/>
<text text-anchor="middle" x="351" y="-302.3" font-family="Times,serif" font-size="14.00">ø</text>
</g>
<!-- a -->
<g id="node6" class="node"><title>a</title>
<ellipse fill="none" stroke="black" cx="207" cy="-234" rx="27" ry="18"/>
<text text-anchor="middle" x="207" y="-230.3" font-family="Times,serif" font-size="14.00">a</text>
</g>
<!-- ø&#45;&#45;a -->
<g id="edge1" class="edge"><title>ø&#45;&#45;a</title>
<path fill="none" stroke="black" d="M329.752,-294.671C302.527,-281.437 255.602,-258.626 228.335,-245.371"/>
</g>
<!-- b -->
<g id="node7" class="node"><title>b</title>
<ellipse fill="none" stroke="black" cx="315" cy="-234" rx="27" ry="18"/>
<text text-anchor="middle" x="315" y="-230.3" font-family="Times,serif" font-size="14.00">b</text>
</g>
<!-- ø&#45;&#45;b -->
<g id="edge2" class="edge"><title>ø&#45;&#45;b</title>
<path fill="none" stroke="black" d="M342.65,-288.765C336.835,-277.456 329.11,-262.437 323.304,-251.147"/>
</g>
<!-- c -->
<g id="node8" class="node"><title>c</title>
<ellipse fill="none" stroke="black" cx="387" cy="-234" rx="27" ry="18"/>
<text text-anchor="middle" x="387" y="-230.3" font-family="Times,serif" font-size="14.00">c</text>
</g>
<!-- ø&#45;&#45;c -->
<g id="edge3" class="edge"><title>ø&#45;&#45;c</title>
<path fill="none" stroke="black" d="M359.35,-288.765C365.165,-277.456 372.89,-262.437 378.696,-251.147"/>
</g>
<!-- d -->
<g id="node9" class="node"><title>d</title>
<ellipse fill="none" stroke="black" cx="495" cy="-234" rx="27" ry="18"/>
<text text-anchor="middle" x="495" y="-230.3" font-family="Times,serif" font-size="14.00">d</text>
</g>
<!-- ø&#45;&#45;d -->
<g id="edge4" class="edge"><title>ø&#45;&#45;d</title>
<path fill="none" stroke="black" d="M372.248,-294.671C399.473,-281.437 446.398,-258.626 473.665,-245.371"/>
</g>
<!-- ab -->
<g id="node10" class="node"><title>ab</title>
<ellipse fill="none" stroke="black" cx="99" cy="-162" rx="27" ry="18"/>
<text text-anchor="middle" x="99" y="-158.3" font-family="Times,serif" font-size="14.00">ab</text>
</g>
<!-- a&#45;&#45;ab -->
<g id="edge5" class="edge"><title>a&#45;&#45;ab</title>
<path fill="none" stroke="black" d="M188.188,-220.807C168.365,-207.959 137.338,-187.848 117.597,-175.053"/>
</g>
<!-- ac -->
<g id="node11" class="node"><title>ac</title>
<ellipse fill="none" stroke="black" cx="171" cy="-162" rx="27" ry="18"/>
<text text-anchor="middle" x="171" y="-158.3" font-family="Times,serif" font-size="14.00">ac</text>
</g>
<!-- a&#45;&#45;ac -->
<g id="edge6" class="edge"><title>a&#45;&#45;ac</title>
<path fill="none" stroke="black" d="M198.65,-216.765C192.835,-205.456 185.11,-190.437 179.304,-179.147"/>
</g>
<!-- ad -->
<g id="node12" class="node"><title>ad</title>
<ellipse fill="none" stroke="black" cx="243" cy="-162" rx="27" ry="18"/>
<text text-anchor="middle" x="243" y="-158.3" font-family="Times,serif" font-size="14.00">ad</text>
</g>
<!-- a&#45;&#45;ad -->
<g id="edge7" class="edge"><title>a&#45;&#45;ad</title>
<path fill="none" stroke="black" d="M215.35,-216.765C221.165,-205.456 228.89,-190.437 234.696,-179.147"/>
</g>
<!-- b&#45;&#45;ell1 -->
<g id="edge8" class="edge"><title>b&#45;&#45;ell1</title>
<path fill="none" stroke="black" d="M315,-215.697C315,-204.846 315,-190.917 315,-180.104"/>
</g>
<!-- c&#45;&#45;ell2 -->
<g id="edge9" class="edge"><title>c&#45;&#45;ell2</title>
<path fill="none" stroke="black" d="M387,-215.697C387,-204.846 387,-190.917 387,-180.104"/>
</g>
<!-- da -->
<g id="node13" class="node"><title>da</title>
<ellipse fill="none" stroke="black" cx="459" cy="-162" rx="27" ry="18"/>
<text text-anchor="middle" x="459" y="-158.3" font-family="Times,serif" font-size="14.00">da</text>
</g>
<!-- d&#45;&#45;da -->
<g id="edge10" class="edge"><title>d&#45;&#45;da</title>
<path fill="none" stroke="black" d="M486.65,-216.765C480.835,-205.456 473.11,-190.437 467.304,-179.147"/>
</g>
<!-- db -->
<g id="node14" class="node"><title>db</title>
<ellipse fill="none" stroke="black" cx="531" cy="-162" rx="27" ry="18"/>
<text text-anchor="middle" x="531" y="-158.3" font-family="Times,serif" font-size="14.00">db</text>
</g>
<!-- d&#45;&#45;db -->
<g id="edge11" class="edge"><title>d&#45;&#45;db</title>
<path fill="none" stroke="black" d="M503.35,-216.765C509.165,-205.456 516.89,-190.437 522.696,-179.147"/>
</g>
<!-- dc -->
<g id="node15" class="node"><title>dc</title>
<ellipse fill="none" stroke="black" cx="603" cy="-162" rx="27" ry="18"/>
<text text-anchor="middle" x="603" y="-158.3" font-family="Times,serif" font-size="14.00">dc</text>
</g>
<!-- d&#45;&#45;dc -->
<g id="edge12" class="edge"><title>d&#45;&#45;dc</title>
<path fill="none" stroke="black" d="M513.812,-220.807C533.635,-207.959 564.662,-187.848 584.403,-175.053"/>
</g>
<!-- abc -->
<g id="node16" class="node"><title>abc</title>
<ellipse fill="none" stroke="black" cx="27" cy="-90" rx="27" ry="18"/>
<text text-anchor="middle" x="27" y="-86.3" font-family="Times,serif" font-size="14.00">abc</text>
</g>
<!-- ab&#45;&#45;abc -->
<g id="edge15" class="edge"><title>ab&#45;&#45;abc</title>
<path fill="none" stroke="black" d="M84.4297,-146.834C72.0202,-134.77 54.2694,-117.512 41.7957,-105.385"/>
</g>
<!-- abd -->
<g id="node17" class="node"><title>abd</title>
<ellipse fill="none" stroke="black" cx="99" cy="-90" rx="27" ry="18"/>
<text text-anchor="middle" x="99" y="-86.3" font-family="Times,serif" font-size="14.00">abd</text>
</g>
<!-- ab&#45;&#45;abd -->
<g id="edge16" class="edge"><title>ab&#45;&#45;abd</title>
<path fill="none" stroke="black" d="M99,-143.697C99,-132.846 99,-118.917 99,-108.104"/>
</g>
<!-- ac&#45;&#45;ell3 -->
<g id="edge13" class="edge"><title>ac&#45;&#45;ell3</title>
<path fill="none" stroke="black" d="M171,-143.697C171,-132.846 171,-118.917 171,-108.104"/>
</g>
<!-- ad&#45;&#45;ell4 -->
<g id="edge14" class="edge"><title>ad&#45;&#45;ell4</title>
<path fill="none" stroke="black" d="M243,-143.697C243,-132.846 243,-118.917 243,-108.104"/>
</g>
<!-- abcd -->
<g id="node18" class="node"><title>abcd</title>
<ellipse fill="none" stroke="black" cx="27" cy="-18" rx="26.949" ry="18"/>
<text text-anchor="middle" x="27" y="-14.3" font-family="Times,serif" font-size="14.00">abcd</text>
</g>
<!-- abc&#45;&#45;abcd -->
<g id="edge17" class="edge"><title>abc&#45;&#45;abcd</title>
<path fill="none" stroke="black" d="M27,-71.6966C27,-60.8463 27,-46.9167 27,-36.1043"/>
</g>
<!-- abdc -->
<g id="node19" class="node"><title>abdc</title>
<ellipse fill="none" stroke="black" cx="100" cy="-18" rx="26.949" ry="18"/>
<text text-anchor="middle" x="100" y="-14.3" font-family="Times,serif" font-size="14.00">abdc</text>
</g>
<!-- abd&#45;&#45;abdc -->
<g id="edge18" class="edge"><title>abd&#45;&#45;abdc</title>
<path fill="none" stroke="black" d="M99.2472,-71.6966C99.4022,-60.8463 99.6012,-46.9167 99.7557,-36.1043"/>
</g>
</g>
</svg>
