<?xml version="1.0" encoding="UTF-8" standalone="no"?>
<!DOCTYPE svg PUBLIC "-//W3C//DTD SVG 1.1//EN"
 "http://www.w3.org/Graphics/SVG/1.1/DTD/svg11.dtd">
<!-- Generated by graphviz version 2.36.0 (20140111.2315)
 -->
<!-- Title: g Pages: 1 -->
<svg width="432pt" height="382pt"
 viewBox="0.00 0.00 432.00 382.00" xmlns="http://www.w3.org/2000/svg" xmlns:xlink="http://www.w3.org/1999/xlink">
<g id="graph0" class="graph" transform="scale(1 1) rotate(0) translate(4 378)">
<title>g</title>
<polygon fill="white" stroke="none" points="-4,4 -4,-378 428,-378 428,4 -4,4"/>
<!-- ell3 -->
<g id="node1" class="node"><title>ell3</title>
<ellipse fill="none" stroke="black" cx="172" cy="-92" rx="27" ry="18"/>
<text text-anchor="middle" x="172" y="-88.3" font-family="Times,serif" font-size="14.00">…</text>
</g>
<!-- ell4 -->
<g id="node2" class="node"><title>ell4</title>
<ellipse fill="none" stroke="black" cx="244" cy="-92" rx="27" ry="18"/>
<text text-anchor="middle" x="244" y="-88.3" font-family="Times,serif" font-size="14.00">…</text>
</g>
<!-- abc -->
<g id="node3" class="node"><title>abc</title>
<ellipse fill="none" stroke="red" stroke-width="3" cx="27" cy="-92" rx="27" ry="18"/>
<text text-anchor="middle" x="27" y="-88.3" font-family="Times,serif" font-size="14.00">abc</text>
</g>
<!-- abcd -->
<g id="node11" class="node"><title>abcd</title>
<ellipse fill="none" stroke="black" cx="27" cy="-18" rx="26.949" ry="18"/>
<text text-anchor="middle" x="27" y="-14.3" font-family="Times,serif" font-size="14.00">abcd</text>
</g>
<!-- abc&#45;&#45;abcd -->
<g id="edge10" class="edge"><title>abc&#45;&#45;abcd</title>
<path fill="none" stroke="black" d="M27,-73.937C27,-62.626 27,-47.8282 27,-36.4407"/>
</g>
<!-- ø -->
<g id="node4" class="node"><title>ø</title>
<ellipse fill="none" stroke="black" cx="220" cy="-356" rx="27" ry="18"/>
<text text-anchor="middle" x="220" y="-352.3" font-family="Times,serif" font-size="14.00">ø</text>
</g>
<!-- a -->
<g id="node5" class="node"><title>a</title>
<ellipse fill="none" stroke="black" cx="172" cy="-268" rx="27" ry="18"/>
<text text-anchor="middle" x="172" y="-264.3" font-family="Times,serif" font-size="14.00">a</text>
</g>
<!-- ø&#45;&#45;a -->
<g id="edge1" class="edge"><title>ø&#45;&#45;a</title>
<path fill="none" stroke="black" d="M210.972,-338.824C202.39,-323.449 189.556,-300.455 180.988,-285.103"/>
</g>
<!-- ell1 -->
<g id="node7" class="node"><title>ell1</title>
<ellipse fill="none" stroke="black" cx="244" cy="-268" rx="27" ry="18"/>
<text text-anchor="middle" x="244" y="-264.3" font-family="Times,serif" font-size="14.00">…</text>
</g>
<!-- ø&#45;&#45;ell1 -->
<g id="edge3" class="edge"><title>ø&#45;&#45;ell1</title>
<path fill="none" stroke="black" d="M224.742,-338.009C228.949,-322.932 235.064,-301.022 239.268,-285.956"/>
</g>
<!-- ab -->
<g id="node6" class="node"><title>ab</title>
<ellipse fill="none" stroke="black" cx="100" cy="-180" rx="27" ry="18"/>
<text text-anchor="middle" x="100" y="-176.3" font-family="Times,serif" font-size="14.00">ab</text>
</g>
<!-- a&#45;&#45;ab -->
<g id="edge2" class="edge"><title>a&#45;&#45;ab</title>
<path fill="none" stroke="black" d="M159.459,-252.02C146.324,-236.331 125.81,-211.829 112.639,-196.097"/>
</g>
<!-- ac -->
<g id="node8" class="node"><title>ac</title>
<ellipse fill="none" stroke="black" cx="172" cy="-180" rx="27" ry="18"/>
<text text-anchor="middle" x="172" y="-176.3" font-family="Times,serif" font-size="14.00">ac</text>
</g>
<!-- a&#45;&#45;ac -->
<g id="edge4" class="edge"><title>a&#45;&#45;ac</title>
<path fill="none" stroke="black" d="M172,-249.597C172,-234.578 172,-213.009 172,-198.084"/>
</g>
<!-- ad -->
<g id="node9" class="node"><title>ad</title>
<ellipse fill="none" stroke="black" cx="244" cy="-180" rx="27" ry="18"/>
<text text-anchor="middle" x="244" y="-176.3" font-family="Times,serif" font-size="14.00">ad</text>
</g>
<!-- a&#45;&#45;ad -->
<g id="edge5" class="edge"><title>a&#45;&#45;ad</title>
<path fill="none" stroke="black" d="M184.541,-252.02C197.676,-236.331 218.19,-211.829 231.361,-196.097"/>
</g>
<!-- ab&#45;&#45;abc -->
<g id="edge8" class="edge"><title>ab&#45;&#45;abc</title>
<path fill="none" stroke="black" d="M87.2844,-164.02C73.9674,-148.331 53.1688,-123.829 39.8148,-108.097"/>
</g>
<!-- abd -->
<g id="node10" class="node"><title>abd</title>
<ellipse fill="none" stroke="black" cx="100" cy="-92" rx="27" ry="18"/>
<text text-anchor="middle" x="100" y="-88.3" font-family="Times,serif" font-size="14.00">abd</text>
</g>
<!-- ab&#45;&#45;abd -->
<g id="edge9" class="edge"><title>ab&#45;&#45;abd</title>
<path fill="none" stroke="black" d="M100,-161.597C100,-146.578 100,-125.009 100,-110.084"/>
</g>
<!-- ac&#45;&#45;ell3 -->
<g id="edge6" class="edge"><title>ac&#45;&#45;ell3</title>
<path fill="none" stroke="black" d="M172,-161.597C172,-146.578 172,-125.009 172,-110.084"/>
</g>
<!-- ad&#45;&#45;ell4 -->
<g id="edge7" class="edge"><title>ad&#45;&#45;ell4</title>
<path fill="none" stroke="black" d="M244,-161.597C244,-146.578 244,-125.009 244,-110.084"/>
</g>
<!-- abdc -->
<g id="node12" class="node"><title>abdc</title>
<ellipse fill="none" stroke="black" cx="100" cy="-18" rx="26.949" ry="18"/>
<text text-anchor="middle" x="100" y="-14.3" font-family="Times,serif" font-size="14.00">abdc</text>
</g>
<!-- abd&#45;&#45;abdc -->
<g id="edge11" class="edge"><title>abd&#45;&#45;abdc</title>
<path fill="none" stroke="black" d="M100,-73.937C100,-62.626 100,-47.8282 100,-36.4407"/>
</g>
<!-- ao -->
<g id="node13" class="node"><title>ao</title>
<ellipse fill="none" stroke="red" stroke-width="3" cx="316" cy="-268" rx="27" ry="18"/>
<text text-anchor="middle" x="316" y="-264.3" font-family="Times,serif" font-size="14.00">a</text>
</g>
<!-- bo -->
<g id="node14" class="node"><title>bo</title>
<ellipse fill="none" stroke="red" stroke-width="3" cx="369" cy="-180" rx="27" ry="18"/>
<text text-anchor="middle" x="369" y="-176.3" font-family="Times,serif" font-size="14.00">b</text>
</g>
<!-- ao&#45;&#45;bo -->
<g id="edge12" class="edge"><title>ao&#45;&#45;bo</title>
<path fill="none" stroke="red" stroke-width="3" d="M325.969,-250.824C333.866,-238.011 345.023,-219.906 353.998,-205.344"/>
<polygon fill="red" stroke="red" stroke-width="3" points="356.988,-207.162 359.255,-196.813 351.029,-203.49 356.988,-207.162"/>
<text text-anchor="middle" x="355.5" y="-220.3" font-family="Times,serif" font-size="14.00"> 2 </text>
</g>
<!-- co -->
<g id="node15" class="node"><title>co</title>
<ellipse fill="none" stroke="red" stroke-width="3" cx="369" cy="-92" rx="27" ry="18"/>
<text text-anchor="middle" x="369" y="-88.3" font-family="Times,serif" font-size="14.00">c</text>
</g>
<!-- bo&#45;&#45;co -->
<g id="edge13" class="edge"><title>bo&#45;&#45;co</title>
<path fill="none" stroke="red" stroke-width="3" d="M369,-161.597C369,-149.746 369,-133.817 369,-120.292"/>
<polygon fill="red" stroke="red" stroke-width="3" points="372.5,-120.084 369,-110.084 365.5,-120.084 372.5,-120.084"/>
<text text-anchor="middle" x="376.5" y="-132.3" font-family="Times,serif" font-size="14.00"> 2 </text>
</g>
<!-- co&#45;&#45;ao -->
<g id="edge14" class="edge"><title>co&#45;&#45;ao</title>
<path fill="none" stroke="black" d="M354.197,-107.297C341.902,-120.257 325.289,-140.563 318,-162 307.904,-191.69 310.472,-228.883 313.244,-250.094"/>
<text text-anchor="middle" x="325.5" y="-176.3" font-family="Times,serif" font-size="14.00"> 2 </text>
</g>
<!-- do -->
<g id="node16" class="node"><title>do</title>
<ellipse fill="none" stroke="black" cx="379" cy="-356" rx="27" ry="18"/>
<text text-anchor="middle" x="379" y="-352.3" font-family="Times,serif" font-size="14.00">d</text>
</g>
<!-- do&#45;&#45;ao -->
<g id="edge15" class="edge"><title>do&#45;&#45;ao</title>
<path fill="none" stroke="black" d="M365.943,-339.943C360.826,-333.863 354.995,-326.709 350,-320 341.485,-308.562 332.568,-295.125 326.004,-284.915"/>
<text text-anchor="middle" x="357.5" y="-308.3" font-family="Times,serif" font-size="14.00"> 2 </text>
</g>
<!-- do&#45;&#45;bo -->
<g id="edge16" class="edge"><title>do&#45;&#45;bo</title>
<path fill="none" stroke="black" d="M378.023,-337.999C376.111,-304.735 371.896,-231.39 369.981,-198.07"/>
<text text-anchor="middle" x="382.5" y="-264.3" font-family="Times,serif" font-size="14.00"> 2 </text>
</g>
<!-- do&#45;&#45;co -->
<g id="edge17" class="edge"><title>do&#45;&#45;co</title>
<path fill="none" stroke="black" d="M385.305,-338.277C397.133,-304.56 420.147,-226.165 405,-162 400.344,-142.275 388.784,-121.976 380.01,-108.548"/>
<text text-anchor="middle" x="416.5" y="-220.3" font-family="Times,serif" font-size="14.00"> 2 </text>
</g>
</g>
</svg>
